<?xml version="1.0" encoding="utf-8"?>
<svg version="1.1" id="Layer_1" xmlns="http://www.w3.org/2000/svg" x="0px" y="0px" viewBox="0 0 500 200" style="enable-background:new 0 0 512 512;" width="500" height="500">
  <g style="" transform="matrix(1.002942, 0, 0, 1, -0.177647, 0)">
    <path x="334.769" y="166.316" style="fill:#FD8300;" width="16.879" height="50.637" d="M 326.923 162.418 L 341.737 162.697 C 331.685 162.697 343.728 211.868 343.408 211.868 L 324.973 212.706 C 330.891 212.409 335.736 161.976 326.923 162.418 Z"/>
    <path x="59.077" y="139.163" style="fill:#FD8300;" width="16.879" height="50.637" d="M 56.241 134.863 L 73.217 135.642 C 61.609 144.994 66.087 190.129 71.922 185.352 L 51.32 185.352 C 60.573 193.175 67.246 137.572 56.241 134.863 Z"/>
    <path x="436.044" y="139.163" style="fill: rgb(253, 131, 0);" width="16.879" height="50.637" d="M 430.003 136.97 L 439.749 136.116 C 435.664 137.728 434.465 187.652 441.24 187.495 L 428.016 188.349 C 432.832 188.349 433.67 136.97 430.003 136.97 Z"/>
  </g>
  <path style="fill: rgb(202, 237, 115);" d="M 467.086 325.095 C 249.499 312.288 238.525 173.077 0 173.077 L 0 326.037 L 467.054 329.097 L 467.086 325.095 Z"/>
  <path style="fill: rgb(131, 196, 154);" d="M 467.032 173.73 L 434.064 285.806 L 467.032 329.117 L 500 329.117 L 500 173.077 C 488.497 173.077 477.527 173.302 467.032 173.73"/>
  <path style="fill: rgb(163, 220, 147);" d="M 0 278.957 L 0 329.107 L 467.14 329.107 L 467.14 174.027 C 249.549 182.869 238.568 278.957 0 278.957"/>
  <g>
    <path style="fill:#83C49A;" d="M 33.036 215.225 C 28.484 215.225 24.794 211.535 24.794 206.983 L 24.794 195.993 C 24.794 189.648 31.663 185.683 37.158 188.855 C 39.708 190.327 41.279 193.049 41.279 195.993 L 41.279 206.983 C 41.279 211.535 37.589 215.225 33.037 215.225"/>
    <path style="fill:#83C49A;" d="M 287.353 270.526 C 282.801 270.526 279.111 266.836 279.111 262.284 L 279.111 251.294 C 279.111 244.949 285.98 240.984 291.475 244.156 C 294.025 245.629 295.596 248.35 295.596 251.294 L 295.596 262.284 C 295.596 266.836 291.906 270.526 287.354 270.526"/>
    <path style="fill:#83C49A;" d="M 433.518 238.936 C 428.966 238.936 425.276 235.246 425.276 230.694 L 425.276 219.703 C 425.276 213.358 432.145 209.392 437.64 212.565 C 440.19 214.037 441.761 216.758 441.761 219.703 L 441.761 230.693 C 441.761 235.245 438.071 238.935 433.519 238.935"/>
    <path style="fill:#83C49A;" d="M 393.779 299.427 C 389.227 299.427 385.537 295.737 385.537 291.185 L 385.537 280.195 C 385.537 273.85 392.406 269.884 397.901 273.057 C 400.451 274.529 402.022 277.25 402.022 280.195 L 402.022 291.185 C 402.022 295.737 398.332 299.427 393.78 299.427"/>
    <path style="fill:#83C49A;" d="M 95.207 248.192 C 90.655 248.192 86.965 244.502 86.965 239.95 L 86.965 228.96 C 86.965 224.408 90.655 220.718 95.207 220.718 C 99.759 220.718 103.449 224.408 103.449 228.96 L 103.449 239.95 C 103.449 244.502 99.759 248.192 95.207 248.192"/>
  </g>
  <path style="fill: rgb(131, 196, 154); stroke-width: 1;" d="M 310.331 99.76 L 310.331 142.39 C 310.331 156.516 321.464 167.968 335.198 167.968 L 335.198 74.183 C 321.465 74.183 310.331 85.635 310.331 99.761"/>
  <path style="fill: rgb(99, 171, 161); stroke-width: 1;" d="M 335.17 74.191 L 334.953 121.683 L 335.17 167.936 C 348.865 167.936 359.968 156.49 359.968 142.369 L 359.968 99.758 C 359.968 85.638 348.866 74.191 335.17 74.191"/>
  <path style="fill: rgb(131, 196, 154); stroke-width: 1;" d="M 417.301 88.92 L 417.301 121.991 C 417.301 132.951 425.496 141.834 435.605 141.834 L 435.605 69.078 C 425.497 69.078 417.301 77.962 417.301 88.921"/>
  <path style="fill: rgb(99, 171, 161); stroke-width: 1;" d="M 435.544 69.078 L 435.398 105.936 L 435.544 141.833 C 444.79 141.833 452.285 132.95 452.285 121.991 L 452.285 88.921 C 452.285 77.962 444.791 69.078 435.544 69.078"/>
  <path style="fill: rgb(131, 196, 154); stroke-width: 1;" d="M 42 75.194 L 42 117.824 C 42 131.95 53.133 143.402 66.867 143.402 L 66.867 49.617 C 53.134 49.617 42 61.069 42 75.195"/>
  <path style="fill: rgb(99, 171, 161); stroke-width: 1;" d="M 66.86 49.628 L 66.643 97.12 L 66.86 143.373 C 80.555 143.373 91.658 131.927 91.658 117.806 L 91.658 75.195 C 91.658 61.075 80.556 49.628 66.86 49.628"/>
</svg>